{
  "accessors": [
    {
      "bufferView": 2,
      "componentType": 5126,
      "count": 1110,
      "max": [
        24.243404388427734,
        149.24830627441406,
        18.672985076904297
      ],
      "min": [
        3.622918128967285,
        123.14466857910156,
        3.555830478668213
      ],
      "type": "VEC3"
    },
    {
      "bufferView": 2,
      "byteOffset": 13320,
      "componentType": 5126,
      "count": 1110,
      "max": [
        0.9971333146095276,
        0.9966880083084106,
        0.9951649308204651
      ],
      "min": [
        -0.9964002966880798,
        -0.9925178289413452,
        -0.9980031847953796
      ],
      "type": "VEC3"
    },
    {
      "bufferView": 1,
      "componentType": 5126,
      "count": 1110,
      "max": [
        0.9916830062866211,
        0.9787759780883789
      ],
      "min": [
        0.0063599999994039536,
        0.014188000001013279
      ],
      "type": "VEC2"
    },
    {
      "bufferView": 0,
      "componentType": 5125,
      "count": 5916,
      "type": "SCALAR"
    },
    {
      "bufferView": 2,
      "byteOffset": 26640,
      "componentType": 5126,
      "count": 6548,
      "max": [
        24.556499481201172,
        150.47021484375,
        20.1309871673584
      ],
      "min": [
        1.0941038131713867,
        124.5064926147461,
        2.0758237838745117
      ],
      "type": "VEC3"
    },
    {
      "bufferView": 2,
      "byteOffset": 105216,
      "componentType": 5126,
      "count": 6548,
      "max": [
        0.9873842597007751,
        0.9997768998146057,
        0.9989444613456726
      ],
      "min": [
        -0.999671220779419,
        -0.9390296936035156,
        -0.9998701810836792
      ],
      "type": "VEC3"
    },
    {
      "bufferView": 1,
      "byteOffset": 8880,
      "componentType": 5126,
      "count": 6548,
      "max": [
        0.6046654582023621,
        0.883264422416687
      ],
      "min": [
        0.04421611130237579,
        0.014826655387878418
      ],
      "type": "VEC2"
    },
    {
      "bufferView": 1,
      "byteOffset": 61264,
      "componentType": 5126,
      "count": 6548,
      "max": [
        0.6046654582023621,
        0.883264422416687
      ],
      "min": [
        0.04421611130237579,
        0.014826655387878418
      ],
      "type": "VEC2"
    },
    {
      "bufferView": 0,
      "byteOffset": 23664,
      "componentType": 5125,
      "count": 17076,
      "type": "SCALAR"
    },
    {
      "bufferView": 2,
      "byteOffset": 183792,
      "componentType": 5126,
      "count": 114,
      "max": [
        21.863399505615234,
        138.4125518798828,
        14.892822265625
      ],
      "min": [
        20.277698516845703,
        135.4368438720703,
        7.658708572387695
      ],
      "type": "VEC3"
    },
    {
      "bufferView": 2,
      "byteOffset": 185160,
      "componentType": 5126,
      "count": 114,
      "max": [
        0.9810582399368286,
        0.8724044561386108,
        0.9937422275543213
      ],
      "min": [
        -0.07819625735282898,
        -0.9943957328796387,
        -0.9539433717727661
      ],
      "type": "VEC3"
    },
    {
      "bufferView": 1,
      "byteOffset": 113648,
      "componentType": 5126,
      "count": 114,
      "max": [
        1.0238749980926514,
        1.0062239170074463
      ],
      "min": [
        -0.020275920629501343,
        -0.022785842418670654
      ],
      "type": "VEC2"
    },
    {
      "bufferView": 0,
      "byteOffset": 91968,
      "componentType": 5125,
      "count": 588,
      "type": "SCALAR"
    },
    {
      "bufferView": 2,
      "byteOffset": 186528,
      "componentType": 5126,
      "count": 4922,
      "max": [
        50.59461975097656,
        141.69590759277344,
        45.32254409790039
      ],
      "min": [
        -49.21543884277344,
        -0.35019901394844055,
        -42.800148010253906
      ],
      "type": "VEC3"
    },
    {
      "bufferView": 2,
      "byteOffset": 245592,
      "componentType": 5126,
      "count": 4922,
      "max": [
        0.9995754957199097,
        0.9997667074203491,
        0.9997512102127075
      ],
      "min": [
        -0.9998083710670471,
        -0.9999586939811707,
        -0.9999971985816956
      ],
      "type": "VEC3"
    },
    {
      "bufferView": 1,
      "byteOffset": 114560,
      "componentType": 5126,
      "count": 4922,
      "max": [
        0.998242974281311,
        0.9986429810523987
      ],
      "min": [
        0.002836999949067831,
        0.0036800000816583633
      ],
      "type": "VEC2"
    },
    {
      "bufferView": 0,
      "byteOffset": 94320,
      "componentType": 5125,
      "count": 15450,
      "type": "SCALAR"
    },
    {
      "bufferView": 2,
      "byteOffset": 304656,
      "componentType": 5126,
      "count": 3045,
      "max": [
        62.62837219238281,
        135.02499389648438,
        36.95466232299805
      ],
      "min": [
        -15.353361129760742,
        100.20648193359375,
        -13.774904251098633
      ],
      "type": "VEC3"
    },
    {
      "bufferView": 2,
      "byteOffset": 341196,
      "componentType": 5126,
      "count": 3045,
      "max": [
        0.9996930360794067,
        0.9994263648986816,
        0.9996522665023804
      ],
      "min": [
        -0.9985021948814392,
        -0.9998419880867004,
        -0.9995184540748596
      ],
      "type": "VEC3"
    },
    {
      "bufferView": 1,
      "byteOffset": 153936,
      "componentType": 5126,
      "count": 3045,
      "max": [
        0.9954530000686646,
        0.5435749888420105
      ],
      "min": [
        0.003636999987065792,
        0.0027099999133497477
      ],
      "type": "VEC2"
    },
    {
      "bufferView": 0,
      "byteOffset": 156120,
      "componentType": 5125,
      "count": 9174,
      "type": "SCALAR"
    },
    {
      "bufferView": 2,
      "byteOffset": 377736,
      "componentType": 5126,
      "count": 1680,
      "max": [
        31.457290649414063,
        149.53790283203125,
        -4.261992931365967
      ],
      "min": [
        -46.656517028808594,
        106.85874938964844,
        -11.221275329589844
      ],
      "type": "VEC3"
    },
    {
      "bufferView": 2,
      "byteOffset": 397896,
      "componentType": 5126,
      "count": 1680,
      "max": [
        0.9928104281425476,
        0.9995602369308472,
        0.9967394471168518
      ],
      "min": [
        -0.9742621779441833,
        -0.9967288374900818,
        -0.9999053478240967
      ],
      "type": "VEC3"
    },
    {
      "bufferView": 1,
      "byteOffset": 178296,
      "componentType": 5126,
      "count": 1680,
      "max": [
        1.3928580284118652,
        0.9903460144996643
      ],
      "min": [
        0.0341080017387867,
        0.012147000059485435
      ],
      "type": "VEC2"
    },
    {
      "bufferView": 0,
      "byteOffset": 192816,
      "componentType": 5125,
      "count": 1680,
      "type": "SCALAR"
    },
    {
      "bufferView": 2,
      "byteOffset": 418056,
      "componentType": 5126,
      "count": 25681,
      "max": [
        97.99523162841797,
        129.2281494140625,
        23.986129760742188
      ],
      "min": [
        -3.6696882247924805,
        103.8265380859375,
        9.608545303344727
      ],
      "type": "VEC3"
    },
    {
      "bufferView": 2,
      "byteOffset": 726228,
      "componentType": 5126,
      "count": 25681,
      "max": [
        0.9999815821647644,
        0.9999960660934448,
        0.9999470710754395
      ],
      "min": [
        -0.9995611906051636,
        -0.9999910593032837,
        -0.9998385310173035
      ],
      "type": "VEC3"
    },
    {
      "bufferView": 1,
      "byteOffset": 191736,
      "componentType": 5126,
      "count": 25681,
      "max": [
        2.466399908065796,
        0.9919999837875366
      ],
      "min": [
        0.0,
        -0.7261000275611877
      ],
      "type": "VEC2"
    },
    {
      "bufferView": 0,
      "byteOffset": 199536,
      "componentType": 5125,
      "count": 71094,
      "type": "SCALAR"
    }
  ],
  "asset": {
    "extras": {
      "author": "Avatarize (https://sketchfab.com/3dketchup)",
      "license": "CC-BY-4.0 (http://creativecommons.org/licenses/by/4.0/)",
      "source": "https://sketchfab.com/3d-models/soldier-jonas-0cedecb44324444196f40d2cedbeaafe",
      "title": "Soldier Jonas"
    },
    "generator": "Sketchfab-12.63.0",
    "version": "2.0"
  },
  "bufferViews": [
    {
      "buffer": 0,
      "byteLength": 483912,
      "name": "floatBufferViews",
      "target": 34963
    },
    {
      "buffer": 0,
      "byteLength": 397184,
      "byteOffset": 483912,
      "byteStride": 8,
      "name": "floatBufferViews",
      "target": 34962
    },
    {
      "buffer": 0,
      "byteLength": 1034400,
      "byteOffset": 881096,
      "byteStride": 12,
      "name": "floatBufferViews",
      "target": 34962
    }
  ],
  "buffers": [
    {
      "byteLength": 1915496,
      "uri": "scene.bin"
    }
  ],
  "extensionsRequired": [
    "KHR_materials_pbrSpecularGlossiness"
  ],
  "extensionsUsed": [
    "KHR_materials_pbrSpecularGlossiness"
  ],
  "images": [
    {
      "uri": "textures/lambert2_diffuse.png"
    },
    {
      "uri": "textures/lambert5_diffuse.png"
    },
    {
      "uri": "textures/lambert5_specularGlossiness.png"
    },
    {
      "uri": "textures/phong1_diffuse.png"
    },
    {
      "uri": "textures/Mordecai2mat_Mordecai_Body_mati1_diffuse.png"
    },
    {
      "uri": "textures/lambert6_diffuse.png"
    },
    {
      "uri": "textures/Mordecai2meele_sword_Mat_INST1_diffuse.png"
    },
    {
      "uri": "textures/lambert7_diffuse.jpeg"
    }
  ],
  "materials": [
    {
      "doubleSided": true,
      "extensions": {
        "KHR_materials_pbrSpecularGlossiness": {
          "diffuseFactor": [
            1.0,
            1.0,
            1.0,
            1.0
          ],
          "diffuseTexture": {
            "index": 0
          },
          "glossinessFactor": 0.4,
          "specularFactor": [
            1.0,
            1.0,
            1.0
          ],
          "specularGlossinessTexture": {
            "index": 0
          }
        }
      },
      "name": "lambert2"
    },
    {
      "alphaMode": "BLEND",
      "doubleSided": true,
      "extensions": {
        "KHR_materials_pbrSpecularGlossiness": {
          "diffuseFactor": [
            1.0,
            1.0,
            1.0,
            1.0
          ],
          "diffuseTexture": {
            "index": 1
          },
          "glossinessFactor": 0.18730945119999998,
          "specularFactor": [
            1.0,
            1.0,
            1.0
          ],
          "specularGlossinessTexture": {
            "index": 2
          }
        }
      },
      "name": "lambert5"
    },
    {
      "doubleSided": true,
      "extensions": {
        "KHR_materials_pbrSpecularGlossiness": {
          "diffuseFactor": [
            1.0,
            1.0,
            1.0,
            1.0
          ],
          "diffuseTexture": {
            "index": 3
          },
          "glossinessFactor": 0.4,
          "specularFactor": [
            1.0,
            1.0,
            1.0
          ],
          "specularGlossinessTexture": {
            "index": 3
          }
        }
      },
      "name": "phong1"
    },
    {
      "doubleSided": true,
      "extensions": {
        "KHR_materials_pbrSpecularGlossiness": {
          "diffuseFactor": [
            1.0,
            1.0,
            1.0,
            1.0
          ],
          "diffuseTexture": {
            "index": 4
          },
          "glossinessFactor": 0.4,
          "specularFactor": [
            1.0,
            1.0,
            1.0
          ],
          "specularGlossinessTexture": {
            "index": 4
          }
        }
      },
      "name": "Mordecai2mat_Mordecai_Body_mati1"
    },
    {
      "doubleSided": true,
      "extensions": {
        "KHR_materials_pbrSpecularGlossiness": {
          "diffuseFactor": [
            1.0,
            1.0,
            1.0,
            1.0
          ],
          "diffuseTexture": {
            "index": 5
          },
          "glossinessFactor": 0.4,
          "specularFactor": [
            1.0,
            1.0,
            1.0
          ],
          "specularGlossinessTexture": {
            "index": 5
          }
        }
      },
      "name": "lambert6"
    },
    {
      "doubleSided": true,
      "extensions": {
        "KHR_materials_pbrSpecularGlossiness": {
          "diffuseFactor": [
            1.0,
            1.0,
            1.0,
            1.0
          ],
          "diffuseTexture": {
            "index": 6
          },
          "glossinessFactor": 0.4,
          "specularFactor": [
            1.0,
            1.0,
            1.0
          ],
          "specularGlossinessTexture": {
            "index": 6
          }
        }
      },
      "name": "Mordecai2meele_sword_Mat_INST1"
    },
    {
      "doubleSided": true,
      "extensions": {
        "KHR_materials_pbrSpecularGlossiness": {
          "diffuseFactor": [
            1.0,
            1.0,
            1.0,
            1.0
          ],
          "diffuseTexture": {
            "index": 7
          },
          "glossinessFactor": 0.4,
          "specularFactor": [
            1.0,
            1.0,
            1.0
          ],
          "specularGlossinessTexture": {
            "index": 7
          }
        }
      },
      "name": "lambert7"
    }
  ],
  "meshes": [
    {
      "name": "HEAD:polySurface113_lambert2_0",
      "primitives": [
        {
          "attributes": {
            "NORMAL": 1,
            "POSITION": 0,
            "TEXCOORD_0": 2
          },
          "indices": 3,
          "material": 0,
          "mode": 4
        }
      ]
    },
    {
      "name": "HEAD:polySurface113_lambert5_0",
      "primitives": [
        {
          "attributes": {
            "NORMAL": 5,
            "POSITION": 4,
            "TEXCOORD_0": 6,
            "TEXCOORD_1": 7
          },
          "indices": 8,
          "material": 1,
          "mode": 4
        }
      ]
    },
    {
      "name": "HEAD:polySurface113_phong1_0",
      "primitives": [
        {
          "attributes": {
            "NORMAL": 10,
            "POSITION": 9,
            "TEXCOORD_0": 11
          },
          "indices": 12,
          "material": 2,
          "mode": 4
        }
      ]
    },
    {
      "name": "HEAD:polySurface113_Mordecai2:mat_Mordecai_Body_mati1_0",
      "primitives": [
        {
          "attributes": {
            "NORMAL": 14,
            "POSITION": 13,
            "TEXCOORD_0": 15
          },
          "indices": 16,
          "material": 3,
          "mode": 4
        }
      ]
    },
    {
      "name": "HEAD:polySurface113_lambert6_0",
      "primitives": [
        {
          "attributes": {
            "NORMAL": 18,
            "POSITION": 17,
            "TEXCOORD_0": 19
          },
          "indices": 20,
          "material": 4,
          "mode": 4
        }
      ]
    },
    {
      "name": "HEAD:polySurface113_Mordecai2:meele_sword_Mat_INST1_0",
      "primitives": [
        {
          "attributes": {
            "NORMAL": 22,
            "POSITION": 21,
            "TEXCOORD_0": 23
          },
          "indices": 24,
          "material": 5,
          "mode": 4
        }
      ]
    },
    {
      "name": "HEAD:polySurface113_lambert7_0",
      "primitives": [
        {
          "attributes": {
            "NORMAL": 26,
            "POSITION": 25,
            "TEXCOORD_0": 27
          },
          "indices": 28,
          "material": 6,
          "mode": 4
        }
      ]
    }
  ],
  "nodes": [
    {
      "children": [
        1
      ],
      "matrix": [
        1.0,
        0.0,
        0.0,
        0.0,
        0.0,
        2.220446049250313e-16,
        -1.0,
        0.0,
        0.0,
        1.0,
        2.220446049250313e-16,
        0.0,
        0.0,
        0.0,
        0.0,
        1.0
      ],
      "name": "Sketchfab_model"
    },
    {
      "children": [
        2
      ],
      "matrix": [
        1.0,
        0.0,
        0.0,
        0.0,
        0.0,
        0.0,
        1.0,
        0.0,
        0.0,
        -1.0,
        0.0,
        0.0,
        0.0,
        0.0,
        0.0,
        1.0
      ],
      "name": "6cf696b512ad4158a74c6fbeb61ace78.fbx"
    },
    {
      "children": [
        3
      ],
      "name": "RootNode"
    },
    {
      "children": [
        4,
        5,
        6,
        7,
        8,
        9,
        10
      ],
      "name": "HEAD:polySurface113"
    },
    {
      "mesh": 0,
      "name": "HEAD:polySurface113_lambert2_0"
    },
    {
      "mesh": 1,
      "name": "HEAD:polySurface113_lambert5_0"
    },
    {
      "mesh": 2,
      "name": "HEAD:polySurface113_phong1_0"
    },
    {
      "mesh": 3,
      "name": "HEAD:polySurface113_Mordecai2:mat_Mordecai_Body_mati1_0"
    },
    {
      "mesh": 4,
      "name": "HEAD:polySurface113_lambert6_0"
    },
    {
      "mesh": 5,
      "name": "HEAD:polySurface113_Mordecai2:meele_sword_Mat_INST1_0"
    },
    {
      "mesh": 6,
      "name": "HEAD:polySurface113_lambert7_0"
    }
  ],
  "samplers": [
    {
      "magFilter": 9729,
      "minFilter": 9987,
      "wrapS": 10497,
      "wrapT": 10497
    }
  ],
  "scene": 0,
  "scenes": [
    {
      "name": "Sketchfab_Scene",
      "nodes": [
        0
      ]
    }
  ],
  "textures": [
    {
      "sampler": 0,
      "source": 0
    },
    {
      "sampler": 0,
      "source": 1
    },
    {
      "sampler": 0,
      "source": 2
    },
    {
      "sampler": 0,
      "source": 3
    },
    {
      "sampler": 0,
      "source": 4
    },
    {
      "sampler": 0,
      "source": 5
    },
    {
      "sampler": 0,
      "source": 6
    },
    {
      "sampler": 0,
      "source": 7
    }
  ]
}
